Coordinates
version=1
nRows=54
nColumns=12
inDegrees=yes

Units are S.I. units (second, meters, Newtons, ...)
Angles are in degrees

endheader
time	SC_y	SC_z	SC_x	AC_y	AC_z	AC_x	GH_y	GH_z	GH_yy	EL_x	PS_y
       0.0              -39.74          22.12          55.81          41.85         -9.482         -14.61         -113.3           30.4          73.56          76.68          117.2
   0.02859              -39.74          22.12          55.81          41.85         -9.484         -14.61         -113.3          30.41          73.54          76.68          117.2
   0.05717              -39.74          22.11           55.8          41.85         -9.485         -14.61         -113.3          30.41          73.51          76.68          117.2
   0.08576              -39.74          22.11           55.8          41.86         -9.487         -14.61         -113.3          30.41          73.48          76.68          117.2
    0.1143              -39.74          22.11           55.8          41.86         -9.489         -14.61         -113.3          30.41          73.45          76.68          117.2
    0.1429              -39.74          22.11          55.79          41.86         -9.491         -14.61         -113.3          30.41          73.42          76.69          117.2
    0.1715              -39.74          22.11          55.79          41.87         -9.493         -14.62         -113.3          30.41          73.38          76.69          117.2
    0.2001              -39.73          22.11          55.78          41.87         -9.495         -14.62         -113.3          30.41          73.34          76.69          117.2
    0.2287              -39.73           22.1          55.78          41.88         -9.497         -14.62         -113.4          30.41           73.3          76.69          117.1
    0.2573              -39.73           22.1          55.77          41.88           -9.5         -14.62         -113.4          30.41          73.26          76.69          117.1
    0.2859              -39.73           22.1          55.77          41.89         -9.503         -14.62         -113.4          30.41          73.21          76.69          117.1
    0.3145              -39.73           22.1          55.76          41.89         -9.506         -14.62         -113.4          30.42          73.16          76.69          117.1
     0.343              -39.73          22.09          55.75           41.9         -9.509         -14.62         -113.4          30.42          73.11          76.69          117.1
    0.3716              -39.72          22.09          55.75           41.9         -9.512         -14.62         -113.4          30.42          73.05          76.69          117.1
    0.4002              -39.72          22.09          55.74          41.91         -9.516         -14.62         -113.4          30.42          72.99           76.7          117.1
    0.4288              -39.72          22.08          55.73          41.92          -9.52         -14.63         -113.4          30.42          72.92           76.7          117.1
    0.4574              -39.72          22.08          55.72          41.93         -9.524         -14.63         -113.4          30.42          72.84           76.7          117.1
     0.486              -39.71          22.08          55.71          41.93         -9.529         -14.63         -113.4          30.43          72.76           76.7          117.1
    0.5146              -39.71          22.07           55.7          41.94         -9.534         -14.63         -113.4          30.43          72.67           76.7          117.1
    0.5432              -39.71          22.07          55.69          41.95          -9.54         -14.63         -113.4          30.43          72.57          76.71          117.0
    0.5717               -39.7          22.06          55.67          41.97         -9.546         -14.64         -113.4          30.43          72.47          76.71          117.0
    0.6003               -39.7          22.06          55.66          41.98         -9.553         -14.64         -113.4          30.44          72.35          76.71          117.0
    0.6289               -39.7          22.05          55.64          41.99         -9.561         -14.64         -113.4          30.44          72.22          76.72          117.0
    0.6575              -39.69          22.04          55.63          42.01         -9.569         -14.65         -113.4          30.44          72.08          76.72          117.0
    0.6861              -39.69          22.03          55.61          42.03         -9.579         -14.65         -113.4          30.45          71.92          76.72          116.9
    0.7147              -39.68          22.02          55.58          42.04         -9.589         -14.66         -113.4          30.45          71.74          76.73          116.9
    0.7433              -39.67          22.01          55.56          42.07         -9.601         -14.66         -113.5          30.46          71.54          76.73          116.9
    0.7719              -39.66           22.0          55.53          42.09         -9.614         -14.67         -113.5          30.46          71.31          76.74          116.8
    0.8004              -39.66          21.99           55.5          42.12         -9.629         -14.67         -113.5          30.47          71.06          76.75          116.8
     0.829              -39.65          21.97          55.46          42.15         -9.646         -14.68         -113.5          30.48          70.77          76.75          116.8
    0.8576              -39.63          21.96          55.42          42.18         -9.665         -14.69         -113.5          30.49          70.44          76.76          116.7
    0.8862              -39.62          21.94          55.38          42.23         -9.687          -14.7         -113.5           30.5          70.07          76.77          116.7
    0.9148              -39.61          21.92          55.32          42.27         -9.713         -14.71         -113.6          30.51          69.63          76.78          116.6
    0.9434              -39.59          21.89          55.26          42.33         -9.743         -14.72         -113.6          30.52          69.12           76.8          116.5
     0.972              -39.57          21.86          55.19          42.39         -9.778         -14.73         -113.6          30.54          68.53          76.81          116.4
     1.001              -39.54          21.82           55.1          42.47         -9.819         -14.75         -113.7          30.55          67.83          76.83          116.3
     1.029              -39.51          21.78           55.0          42.56         -9.867         -14.77         -113.7          30.58           67.0          76.85          116.2
     1.058              -39.48          21.73          54.87          42.66         -9.926         -14.79         -113.8           30.6          66.01          76.88          116.1
     1.086              -39.44          21.67          54.72          42.79         -9.997         -14.82         -113.9          30.63           64.8          76.91          115.9
     1.115              -39.39          21.59          54.54          42.95         -10.08         -14.86         -113.9          30.67          63.33          76.95          115.7
     1.143              -39.32           21.5          54.31          43.15         -10.19          -14.9         -114.1          30.72          61.52           77.0          115.4
     1.172              -39.24          21.39          54.03          43.39         -10.32         -14.96         -114.2          30.78          59.25          77.06          115.0
     1.201              -39.14          21.24          53.68           43.7         -10.49         -15.03         -114.4          30.85           56.4          77.13          114.6
     1.229              -39.02          21.05          53.23          44.09          -10.7         -15.12         -114.6          30.95          52.78          77.23          114.1
     1.258              -38.86          20.82          52.65          44.59         -10.98         -15.23         -114.9          31.07          48.14          77.35          113.4
     1.286              -38.65          20.51          51.92          45.23         -11.33         -15.38         -115.2          31.23          42.18           77.5          112.5
     1.315              -38.38          20.12          50.97          46.05         -11.77         -15.56         -115.7          31.43          34.58           77.7          111.3
     1.344              -38.05          19.63          49.78          47.09         -12.33         -15.79         -116.2          31.68          25.02          77.95          109.9
     1.372              -37.64          19.04          48.34          48.34         -13.02         -16.08         -116.9          31.98          13.36          78.26          108.2
     1.401              -37.17          18.35          46.66           49.8         -13.81         -16.41         -117.8          32.33        -0.1461          78.61          106.1
     1.429              -36.66           17.6          44.85          51.38         -14.67         -16.76         -118.6          32.72         -14.77          78.99          103.9
     1.458              -36.15          16.85          43.03          52.96         -15.53         -17.12         -119.5           33.1          -29.4          79.38          101.7
     1.487              -35.68          16.16          41.36          54.42         -16.32         -17.45         -120.3          33.45         -42.91          79.73          99.71
     1.515              -35.27          15.56          39.91          55.67         -17.01         -17.73         -121.0          33.76         -54.56          80.04          97.96
